<svg xmlns="http://www.w3.org/2000/svg" width="107" height="19" viewBox="0 0 107 19">
  <g id="그룹_30672" data-name="그룹 30672" transform="translate(-442 -1539)">
    <g id="그룹_30415" data-name="그룹 30415" transform="translate(112 1003)">
      <rect id="사각형_16029" data-name="사각형 16029" width="19" height="19" transform="translate(330 536)" fill="none"/>
      <path id="패스_63362" data-name="패스 63362" d="M8.389,0,6.152,5.759,0,6.113l4.77,3.914L3.2,16.005l5.185-3.341,5.185,3.341-1.565-5.978,4.77-3.914-6.152-.354Z" transform="translate(331.111 537.498)" fill="#f9a825"/>
    </g>
    <g id="그룹_30418" data-name="그룹 30418" transform="translate(156 1003)">
      <rect id="사각형_16029-2" data-name="사각형 16029" width="19" height="19" transform="translate(330 536)" fill="none"/>
      <path id="패스_63362-2" data-name="패스 63362" d="M8.389,0,6.152,5.759,0,6.113l4.77,3.914L3.2,16.005l5.185-3.341,5.185,3.341-1.565-5.978,4.77-3.914-6.152-.354Z" transform="translate(331.111 537.498)" fill="#f9a825"/>
    </g>
    <g id="그룹_30416" data-name="그룹 30416" transform="translate(134 1003)">
      <rect id="사각형_16029-3" data-name="사각형 16029" width="19" height="19" transform="translate(330 536)" fill="none"/>
      <path id="패스_63362-3" data-name="패스 63362" d="M8.389,0,6.152,5.759,0,6.113l4.77,3.914L3.2,16.005l5.185-3.341,5.185,3.341-1.565-5.978,4.77-3.914-6.152-.354Z" transform="translate(331.111 537.498)" fill="#f9a825"/>
    </g>
    <g id="그룹_30417" data-name="그룹 30417" transform="translate(178 1003)">
      <rect id="사각형_16029-4" data-name="사각형 16029" width="19" height="19" transform="translate(330 536)" fill="none"/>
      <path id="패스_63362-4" data-name="패스 63362" d="M8.389,0,6.152,5.759,0,6.113l4.77,3.914L3.2,16.005l5.185-3.341,5.185,3.341-1.565-5.978,4.77-3.914-6.152-.354Z" transform="translate(331.111 537.498)" fill="#f9a825"/>
    </g>
    <g id="그룹_30419" data-name="그룹 30419" transform="translate(200 1003)">
      <rect id="사각형_16029-5" data-name="사각형 16029" width="19" height="19" transform="translate(330 536)" fill="none"/>
      <path id="패스_63362-5" data-name="패스 63362" d="M8.389,0,6.152,5.759,0,6.113l4.77,3.914L3.2,16.005l5.185-3.341,5.185,3.341-1.565-5.978,4.77-3.914-6.152-.354Z" transform="translate(331.111 537.498)" fill="#f9a825"/>
    </g>
  </g>
</svg>
