<svg xmlns="http://www.w3.org/2000/svg" width="54" height="54" viewBox="0 0 54 54">
  <g id="그룹_41457" data-name="그룹 41457" transform="translate(-1225 -1718)">
    <path id="패스_74036" data-name="패스 74036" d="M54,27A27,27,0,1,1,27,0,27,27,0,0,1,54,27" transform="translate(1225 1718)" fill="#eff9ff"/>
    <g id="그룹_41456" data-name="그룹 41456" transform="translate(1.793 2.728)">
      <path id="패스_74038" data-name="패스 74038" d="M55.772,50.815A9.457,9.457,0,0,1,54.352,45.8a9.578,9.578,0,1,1,17.739,5.013c-.993,1.7-4.044,5.383-4.044,7.7H59.8c0-2.314-3.03-6-4.024-7.692" transform="translate(1186.277 1692.195)" fill="#6fc0ff"/>
      <path id="패스_74039" data-name="패스 74039" d="M76.832,128.232l.181,2.777a3.944,3.944,0,1,0,7.882,0l.182-2.777Z" transform="translate(1169.243 1622.472)" fill="#0090e8"/>
      <rect id="사각형_22275" data-name="사각형 22275" width="8.007" height="1.019" transform="translate(1246.195 1753.014)" fill="#fff"/>
      <path id="패스_74040" data-name="패스 74040" d="M89.573,101.27a1.384,1.384,0,1,0,1.386,1.392,1.365,1.365,0,0,0-1.386-1.392" transform="translate(1160.626 1642.903)" fill="#fff"/>
      <path id="패스_74041" data-name="패스 74041" d="M88.662,67.258a.7.7,0,0,0,.076.381.254.254,0,0,0,.241.132H90.3c.3,0,.364-.055.394-.082a.307.307,0,0,0,.091-.17.194.194,0,0,0,.009-.058l.25-8.356c.011-.309.017-.465-.095-.581a.536.536,0,0,0-.417-.108H88.944a.556.556,0,0,0-.429.112c-.119.122-.112.3-.1.576Z" transform="translate(1160.472 1675.375)" fill="#fff"/>
    </g>
  </g>
</svg>
