<svg xmlns="http://www.w3.org/2000/svg" width="448" height="512" viewBox="0 0 448 512">
  <path id="calendar-days-regular" d="M152,24a24,24,0,0,0-48,0V64H64A64.059,64.059,0,0,0,0,128V448a64.059,64.059,0,0,0,64,64H384a64.059,64.059,0,0,0,64-64V128a64.059,64.059,0,0,0-64-64H344V24a24,24,0,0,0-48,0V64H152ZM48,192h80v56H48Zm0,104h80v64H48Zm128,0h96v64H176Zm144,0h80v64H320Zm80-48H320V192h80Zm0,160v40a16.047,16.047,0,0,1-16,16H320V408Zm-128,0v56H176V408Zm-144,0v56H64a16.047,16.047,0,0,1-16-16V408ZM272,248H176V192h96Z" fill="#6743ff"/>
</svg>
