<svg xmlns="http://www.w3.org/2000/svg" width="25" height="25" viewBox="0 0 25 25">
  <g id="그룹_2" data-name="그룹 2" transform="translate(-580 -291)">
    <path id="angles-right-solid" d="M84.039,74.543a1.585,1.585,0,0,0,0-2.241l-7.914-7.914a1.584,1.584,0,0,0-2.241,2.241l6.8,6.8-6.791,6.8a1.584,1.584,0,0,0,2.241,2.241l7.914-7.914Zm-17.41,7.914,7.914-7.914a1.585,1.585,0,0,0,0-2.241l-7.914-7.914a1.584,1.584,0,0,0-2.241,2.241l6.8,6.8-6.791,6.8a1.584,1.584,0,0,0,2.241,2.241Z" transform="translate(518.075 230.075)"/>
    <rect id="사각형_1" data-name="사각형 1" width="25" height="25" transform="translate(580 291)" fill="none"/>
  </g>
</svg>
